<svg width="40" height="41" viewBox="0 0 40 41" fill="none" xmlns="http://www.w3.org/2000/svg">
<rect y="0.492188" width="40" height="40" rx="9.46154" fill="#4DAAC2"/>
<g clip-path="url(#clip0_319_5773)">
<path d="M22.0601 20.9541C22.8444 20.9294 23.6229 20.918 24.3784 20.9795L24.7007 21.0098C25.3142 21.0784 25.9344 21.3794 26.4565 21.8105C26.9132 22.1876 27.2899 22.6605 27.52 23.1553L27.6099 23.3691C27.8939 24.1284 27.9017 25.196 27.7642 26.2783C27.6442 27.2228 27.4153 28.1676 27.1724 28.9072L27.0679 29.2109C25.1027 34.6449 18.4747 36.1784 14.0034 32.7266L13.7915 32.5586C11.3032 30.5168 10.6274 27.468 10.8804 24.3438L11.3608 24.5977L11.3647 24.5996C11.9076 24.8561 12.4121 24.8039 12.896 24.71C13.3247 24.6267 13.728 24.5147 14.1528 24.5273L14.3364 24.541C15.5025 24.6795 16.809 25.1793 17.8003 25.8457L17.9946 25.9814C18.129 26.0791 18.4318 26.3272 18.7065 26.5889C18.8437 26.7195 18.972 26.8514 19.0679 26.9688C19.1159 27.0275 19.1547 27.0816 19.1821 27.1279C19.2058 27.168 19.2171 27.1982 19.2222 27.2188C19.221 27.2229 19.2204 27.2287 19.2183 27.2354C19.2112 27.2575 19.2004 27.288 19.186 27.3252C19.1575 27.3994 19.1176 27.4952 19.0757 27.5957C19.0347 27.6939 18.9908 27.7992 18.9536 27.8906L18.8726 28.1045C18.8202 28.2834 18.7439 28.6173 18.6929 28.9463C18.6673 29.1108 18.6474 29.2762 18.6411 29.4219C18.6365 29.5287 18.6383 29.6313 18.6528 29.7168L18.6724 29.7969C18.734 29.987 18.915 30.0485 19.0728 30.0293C19.2099 30.0126 19.3531 29.9344 19.4341 29.8018L19.4653 29.7422C19.5422 29.5577 19.5886 29.2909 19.6313 29.0303C19.6643 28.8295 19.6952 28.6297 19.7349 28.457L19.7778 28.2949C19.9541 27.7202 20.3146 27.0685 20.7925 26.5459C21.2113 26.0879 21.7127 25.7367 22.2515 25.6143L22.4839 25.5762H22.4849C22.5447 25.5702 22.6457 25.5715 22.7729 25.5752C22.8972 25.5788 23.0425 25.5844 23.1831 25.585C23.3235 25.5856 23.4647 25.5816 23.5806 25.5645C23.6382 25.5559 23.6934 25.5436 23.7407 25.5254C23.7637 25.5165 23.7879 25.505 23.8101 25.4902L23.8687 25.4346C23.9175 25.3658 23.944 25.2926 23.9458 25.2178C23.9475 25.1433 23.9243 25.0744 23.8882 25.0137C23.8178 24.8956 23.6916 24.797 23.5581 24.7188C23.3559 24.6002 23.1092 24.5118 22.9292 24.4639L22.7759 24.4297C22.2317 24.3447 21.745 24.3608 21.2915 24.3311C20.8905 24.3048 20.4966 24.2431 20.063 24.0488L19.8745 23.957C19.2524 23.6305 18.7152 23.0304 18.5503 22.4434C18.4686 22.1524 18.4799 21.8703 18.6089 21.624C18.7364 21.3806 18.9864 21.1586 19.4097 20.998C20.2774 21.0257 21.1733 20.982 22.0601 20.9541Z" fill="black" stroke="#4DAAC2" stroke-width="0.195974"/>
<path d="M17.4585 6.6123C17.8898 6.56027 18.2199 6.60376 18.4771 6.71289C18.7334 6.8217 18.9251 6.99856 19.0747 7.22461C19.3025 7.56882 19.4299 8.02092 19.5356 8.51074L19.6372 9.01074C20.3362 12.552 20.8921 16.1241 21.5239 19.6826H21.5249C21.5363 19.7818 21.525 19.8283 21.5083 19.8535C21.4971 19.8703 21.4755 19.8897 21.4253 19.9053L21.3647 19.9199C21.0917 19.9682 20.8397 19.9748 20.5962 19.9707C20.3569 19.9667 20.1128 19.9517 19.8774 19.9561C19.4541 19.964 19.0285 20.0354 18.5454 20.3428L18.3345 20.4893C18.2996 20.5156 18.2637 20.5565 18.2349 20.5889C18.2028 20.6249 18.1746 20.6564 18.1479 20.6807C18.1439 20.6843 18.1395 20.6867 18.1362 20.6895C17.8446 19.1618 17.5644 17.6321 17.2876 16.1016L16.4565 11.4707C16.4161 11.246 16.3542 10.9646 16.2866 10.6592C16.2188 10.3527 16.145 10.0205 16.0815 9.69141C16.0181 9.36219 15.9653 9.03773 15.938 8.74707C15.9174 8.52787 15.9111 8.33172 15.9253 8.16895L15.9468 8.01758C16.0924 7.29197 16.6956 6.71434 17.4341 6.61426L17.4585 6.6123Z" fill="black" stroke="#4DAAC2" stroke-width="0.195974"/>
<path d="M26.0371 6.69629C26.7954 6.6049 27.3291 6.82949 27.6523 7.2334C27.938 7.59047 28.0705 8.10171 28.0332 8.69434L28.0068 8.95312C27.8523 10.0538 27.6025 11.1868 27.375 12.3096L27.1592 13.4277C26.9536 14.5714 26.7546 15.7168 26.5557 16.8613L25.9512 20.2939V20.2959C25.9488 20.3106 25.9446 20.319 25.9424 20.3242C25.9353 20.3237 25.9201 20.3236 25.8936 20.3135C25.854 20.2983 25.809 20.274 25.7568 20.2461L25.5986 20.1719C25.2911 20.0695 24.915 19.9971 24.5664 19.957L24.2305 19.9277C24.1427 19.9229 23.992 19.926 23.8193 19.9297C23.6446 19.9335 23.4429 19.9386 23.2461 19.9395C23.049 19.9403 22.8597 19.9366 22.71 19.9238C22.6349 19.9174 22.5717 19.9082 22.5244 19.8975C22.5013 19.8922 22.4836 19.887 22.4707 19.8818L22.4531 19.873C22.452 19.8715 22.4493 19.8673 22.4463 19.8584C22.4418 19.8451 22.4384 19.8257 22.4365 19.7998C22.4327 19.7471 22.4371 19.6792 22.4473 19.6045C22.4573 19.5307 22.4722 19.4542 22.4863 19.3838L22.5215 19.2021C22.6902 18.1403 22.8869 17.0682 23.0938 15.9971L23.7275 12.7979C23.9971 11.4397 24.2358 9.75618 24.6006 8.38281L24.7656 7.81445C24.9422 7.25858 25.3567 6.82858 25.9219 6.71484L26.0371 6.69629Z" fill="black" stroke="#4DAAC2" stroke-width="0.195974"/>
<path d="M15.2944 17.2236C15.7169 17.1696 16.0343 17.2363 16.2681 17.4033C16.4731 17.5499 16.6259 17.7822 16.7261 18.1074L16.7651 18.2529C16.9676 19.0906 17.1553 20.1484 17.3003 21.1104L17.4302 22.0283C17.4896 22.48 17.4649 22.9272 17.3022 23.2725C17.1628 23.5683 16.9194 23.7964 16.5181 23.8887L16.3364 23.9199C15.8796 23.9731 15.5497 23.8842 15.3042 23.7119C15.0568 23.5382 14.8836 23.2715 14.7583 22.9473C14.6329 22.6228 14.5573 22.2479 14.5005 21.8682C14.4721 21.6786 14.4485 21.4891 14.4253 21.3047L14.353 20.7744C14.3315 20.6386 14.2956 20.4398 14.2554 20.2139C14.215 19.9872 14.17 19.7316 14.1304 19.4795C14.0907 19.2272 14.057 18.9793 14.0376 18.7686C14.0228 18.608 14.0165 18.475 14.022 18.3789L14.0317 18.2949C14.08 18.0353 14.2576 17.7848 14.4985 17.5879C14.7091 17.4157 14.9596 17.2911 15.1948 17.2402L15.2944 17.2236Z" fill="black" stroke="#4DAAC2" stroke-width="0.195974"/>
<path d="M12.2979 18.2207C12.6869 18.2917 13.0347 18.545 13.2051 19.001L13.2666 19.209C13.4265 19.9123 13.5979 21.0898 13.6689 21.9248L13.6934 22.2598C13.7188 22.7162 13.5861 23.0622 13.373 23.3047C13.1589 23.5484 12.8568 23.694 12.5342 23.7383C11.9265 23.8216 11.2666 23.544 10.999 22.9141L10.9512 22.7842C10.8103 22.3375 10.764 21.7673 10.7324 21.1768C10.7015 20.5976 10.684 19.9978 10.5986 19.5029C10.6181 19.2602 10.7354 18.9793 10.8916 18.7773L10.9619 18.6943C11.3354 18.2984 11.849 18.1389 12.2979 18.2207Z" fill="black" stroke="#4DAAC2" stroke-width="0.195974"/>
</g>
<defs>
<clipPath id="clip0_319_5773">
<rect width="17.6377" height="28.1713" fill="white" transform="translate(10.5 6.49219)"/>
</clipPath>
</defs>
</svg>
