<svg width="58" height="58" viewBox="0 0 58 58" fill="none" xmlns="http://www.w3.org/2000/svg">
<rect width="58" height="58" rx="13.92" fill="#F5E9CF"/>
<path d="M34.0057 14.5717C37.6718 10.9271 43.5984 10.9445 47.243 14.6107C50.8874 18.2769 50.87 24.2035 47.2039 27.848L31.4285 43.5306C28.5937 46.3485 24.4082 46.975 20.9705 45.4203C19.7671 44.965 18.6376 44.2553 17.6688 43.2865L10.2107 35.8285C6.55543 32.1731 6.55537 26.2466 10.2107 22.5912C13.8661 18.936 19.7927 18.9359 23.448 22.5912L24.6893 23.8324L34.0057 14.5717Z" fill="black"/>
<circle cx="24.2751" cy="36.9336" r="7.61111" transform="rotate(1.22518 24.2751 36.9336)" fill="#43A4BE" stroke="black" stroke-width="3.22222"/>
<circle cx="32.4568" cy="29.0937" r="7.61111" transform="rotate(1.22518 32.4568 29.0937)" fill="#96BE6B" stroke="black" stroke-width="3.22222"/>
<circle cx="40.6394" cy="21.2519" r="7.61111" transform="rotate(1.22518 40.6394 21.2519)" fill="#FEC700" stroke="black" stroke-width="3.22222"/>
</svg>
